# xmcd
#
# Track frame offsets:
#	182
#	24587
#	41190
#	53930
#	66095
#	80507
#	99245
#	116805
#	130307
#	142655
#	159457
#	178107
#	192392
#	204305
#
# Disc length: 2961 seconds
# Revision: 4
# Processed by: cddbd v1.5.2PL0 Copyright (c) Steve Scherf et al.
# Submitted via: dBpowerAMP V12.0
#
DISCID=c20b8f0e
DTITLE=Various Artist - Hearing Is Believing
DYEAR=1993
DGENRE=Country
TTITLE0=Dwight Yoakam - Fast As You (Extended Dance Version)
TTITLE1=Shawn Camp - Fallin' Never Felt So Good
TTITLE2=Randy Travis - Cowboy Boogie (Single Version)
TTITLE3=Michael White - Country Conscience
TTITLE4=Travis Tritt - Looking Out For Number One (Single Version)
TTITLE5=Mark O'Connor - The Devil Comes Back To Georgia
TTITLE6=Little Texas - I'd Rather Miss You
TTITLE7=Travis Tritt - T-R-O-U-B-L-E (Single Version)
TTITLE8=Faith Hill - Wild One
TTITLE9=Little Texas - God Blessed Texas (Dance Edit)
TTITLE10=Michael Martin Murphey and Marty Robbins - Big Iron
TTITLE11=Randy Travis - Look Heart, No Hands
TTITLE12=Brian James - One Single Night
TTITLE13=Dwight Yoakam - This Time
EXTD=
EXTT0=
EXTT1=
EXTT2=
EXTT3=
EXTT4=
EXTT5=
EXTT6=
EXTT7=
EXTT8=
EXTT9=
EXTT10=
EXTT11=
EXTT12=
EXTT13=
PLAYORDER=
